<?xml version="1.0" encoding="utf-8"?>
<!-- Generator: Adobe Illustrator 19.0.0, SVG Export Plug-In . SVG Version: 6.00 Build 0)  -->
<svg version="1.1" id="Layer_1" xmlns="http://www.w3.org/2000/svg" xmlns:xlink="http://www.w3.org/1999/xlink" x="0px" y="0px"
	 viewBox="4 -4 368 368" style="enable-background:new 4 -4 368 368;" xml:space="preserve">
<style type="text/css">
	.st0{fill:#BDE5AE;}
	.st1{fill:#282828;}
</style>
<circle class="st0" cx="178.8" cy="188" r="169"/>
<path class="st1" d="M269.8,213.5c-3.2-2.9-8-2.6-10.8,0.6c-16,17.8-39.1,28.1-63.2,28.1c-24.2,0-47.3-10.2-63.2-28.1
	c-2.9-3.2-7.7-3.4-10.8-0.6c-3.2,2.8-3.4,7.7-0.6,10.8c18.9,21.1,46.1,33.2,74.7,33.2c28.5,0,55.7-12.1,74.7-33.2
	C273.2,221.1,273,216.4,269.8,213.5z"/>
<path class="st1" d="M195.8-3C98.5-3,19.5,76,19.5,173.3s79,176.3,176.3,176.3S372,270.5,372,173.3S293-3,195.8-3z M195.8,334.2
	c-88.7,0-160.9-72.2-160.9-160.9S107.1,12.3,195.8,12.3s160.9,72.2,160.9,160.9S284.4,334.2,195.8,334.2z"/>
<path class="st1" d="M257.1,119.6c-21.2,0-38.3,17.1-38.3,38.3c0,4.2,3.4,7.7,7.7,7.7c4.2,0,7.7-3.4,7.7-7.7c0-12.6,10.3-23,23-23
	c12.6,0,23,10.3,23,23c0,4.2,3.4,7.7,7.7,7.7c4.2,0,7.7-3.4,7.7-7.7C295.4,136.8,278.2,119.6,257.1,119.6z"/>
<path class="st1" d="M157.4,157.9c0,4.2,3.4,7.7,7.7,7.7c4.2,0,7.7-3.4,7.7-7.7c0-21.2-17.1-38.3-38.3-38.3s-38.3,17.1-38.3,38.3
	c0,4.2,3.4,7.7,7.7,7.7s7.7-3.4,7.7-7.7c0-12.6,10.3-23,23-23C147.1,134.9,157.4,145.3,157.4,157.9z"/>
</svg>
