<?xml version="1.0" encoding="utf-8"?>
<!-- Generator: Adobe Illustrator 19.0.0, SVG Export Plug-In . SVG Version: 6.00 Build 0)  -->
<svg version="1.1" id="Capa_1" xmlns="http://www.w3.org/2000/svg" xmlns:xlink="http://www.w3.org/1999/xlink" x="0px" y="0px"
	 viewBox="4 -4 368 368" style="enable-background:new 4 -4 368 368;" xml:space="preserve">
<style type="text/css">
	.st0{fill:#282828;}
</style>
<g>
	<g>
		<g>
			<path class="st0" d="M196,210.3c-28.6,0-55.8,12.1-74.7,33.2c-2.8,3.2-2.6,8,0.6,10.8c1.5,1.3,3.3,2,5.1,2c2.1,0,4.2-0.9,5.7-2.6
				c16-17.9,39.1-28.1,63.3-28.1c24.2,0,47.3,10.2,63.3,28.1c2.8,3.2,7.7,3.4,10.8,0.6c3.1-2.8,3.4-7.7,0.6-10.8
				C251.8,222.4,224.6,210.3,196,210.3z"/>
			<path class="st0" d="M196-4.3C98.8-4.3,19.8,74.8,19.8,172S98.8,348.3,196,348.3S372.3,269.2,372.3,172S293.2-4.3,196-4.3z
				 M196,332.9c-88.7,0-160.9-72.2-160.9-160.9S107.3,11.1,196,11.1S356.9,83.3,356.9,172S284.7,332.9,196,332.9z"/>
			<path class="st0" d="M288,118.4c-4.2,0-7.7,3.4-7.7,7.7c0,12.7-10.3,23-23,23c-12.7,0-23-10.3-23-23c0-4.2-3.4-7.7-7.7-7.7
				s-7.7,3.4-7.7,7.7c0,21.1,17.2,38.3,38.3,38.3s38.3-17.2,38.3-38.3C295.6,121.8,292.2,118.4,288,118.4z"/>
			<path class="st0" d="M173,126c0-4.2-3.4-7.7-7.7-7.7s-7.7,3.4-7.7,7.7c0,12.7-10.3,23-23,23s-23-10.3-23-23
				c0-4.2-3.4-7.7-7.7-7.7c-4.2,0-7.7,3.4-7.7,7.7c0,21.1,17.2,38.3,38.3,38.3S173,147.1,173,126z"/>
		</g>
	</g>
</g>
</svg>
