<?xml version="1.0" encoding="utf-8"?>
<!-- Generator: Adobe Illustrator 19.0.0, SVG Export Plug-In . SVG Version: 6.00 Build 0)  -->
<svg version="1.1" id="Layer_1" xmlns="http://www.w3.org/2000/svg" xmlns:xlink="http://www.w3.org/1999/xlink" x="0px" y="0px"
	 viewBox="0 0 200 200" style="enable-background:new 0 0 200 200;" xml:space="preserve">
<style type="text/css">
	.st0{fill:#FFDB0D;}
	.st1{fill:#FFE26B;}
	.st2{fill:#FFC600;}
	.st3{fill:#BA460A;}
	.st4{display:none;}
	.st5{display:inline;fill:#F15A24;}
	.st6{display:inline;fill:#D64A1E;}
	.st7{display:inline;}
	.st8{fill:#FFFFFF;}
</style>
<g id="XMLID_50_">
	<g id="XMLID_94_">
		<path id="XMLID_6_" class="st0" d="M120.2,47.9C110,45.8,99.3,44.3,89,47.3C76.3,51,65.2,59,58.9,70.8
			c-7.4,13.9-7.9,31.7,0.4,45.4c6.5,10.8,18,19.2,30.5,21.7c15.8,3.1,32.5,3.1,46.9-5c21.3-12,30.6-38,21.1-60.6
			c-4.3-10.3-11.5-19.5-21.4-25.1c-10-5.5-18.8-7.1-30-8.3C94.7,37.8,82,37.8,71,42c-9.4,3.5-17.6,7.8-24.6,15.3
			c-5,5.2-9.5,11.8-12.7,18.4c-7.8,15.7-12.9,33.3-8.2,50.8c9.9,36.5,51.5,48.3,84.4,37.1c30.4-10.4,57.5-35.6,58.5-69.6
			c0.5-17-7.4-35.2-20.4-46.2c-12.7-10.7-26.7-16.9-43.1-19.1c-29.5-4-59.3,7-77.6,30.8C17.5,72,12.3,85.8,11.1,101.7
			c-1.3,17.4,6.2,34,17.2,47c17.9,20.9,47.7,27.8,74,24.4c15.7-2,29.1-4.5,43.6-11.2c13.2-6.1,23.7-17.3,31.3-29.5
			c8.8-14.1,15.6-30.3,13.3-47.2c-2.2-16.2-12.7-29.1-22.8-41.4c-14-16.9-34.5-31.7-56.4-35.7C97.1,5.7,82.8,5.4,68.9,9.7
			c-13.8,4.3-25.3,11.2-36.1,20.7c-19.2,17-30,45.2-28.4,70.7c1,15.2,4.5,28.1,11.1,41.7c6.4,13.2,16.7,23.4,28.3,32
			c21.8,16.1,50.5,16.1,76.1,11.6c20.3-3.6,42.3-14.4,55.8-30.2c9.2-10.7,16.9-22.9,20-36.9c3.2-14.3,3.2-28.5-0.2-42.8
			c-6.2-25.4-25.5-46.7-48.9-57.6c-13.6-6.4-28.9-12.8-44.3-11.3c-11,1.1-20.5,3.8-28.5,11.8c-7,7-12.3,18.5-11.8,28.5
			c0.5,10.4,3.9,21.2,11.8,28.5c7.4,6.8,18,12.9,28.5,11.8c2.4-0.2,4.6-0.2,6.9,0c-3.6-0.5-7.1-1-10.7-1.4c4.6,0.8,9,2.3,13.3,4
			c-3.2-1.4-6.4-2.7-9.6-4.1c6.1,2.6,11.8,5.7,17.1,9.6c-2.7-2.1-5.4-4.2-8.2-6.3c3.4,2.7,6.5,5.6,9.2,9c-2.1-2.7-4.2-5.4-6.3-8.2
			c2.1,2.8,3.8,5.7,5.3,8.9c-1.4-3.2-2.7-6.4-4.1-9.6c1.7,4.1,2.9,8.4,3.6,12.8c-0.5-3.6-1-7.1-1.4-10.7c0.5,4,0.5,7.9,0,11.9
			c0.5-3.6,1-7.1,1.4-10.7c-0.6,4-1.5,7.7-3,11.4c1.4-3.2,2.7-6.4,4.1-9.6c-1.5,3.5-3.4,6.8-5.7,9.9c2.1-2.7,4.2-5.4,6.3-8.2
			c-2.6,3.3-5.5,6.2-8.7,8.8c2.7-2.1,5.4-4.2,8.2-6.3c-4.5,3.4-9.3,6.2-14.5,8.4c3.2-1.4,6.4-2.7,9.6-4.1
			c-6.3,2.5-12.7,4.2-19.4,5.2c3.6-0.5,7.1-1,10.7-1.4c-7.3,1-14.5,1.2-21.8,0.3c3.6,0.5,7.1,1,10.7,1.4c-4-0.6-7.7-1.5-11.5-3
			c3.2,1.4,6.4,2.7,9.6,4.1c-3.2-1.5-6.1-3.2-8.9-5.3c2.7,2.1,5.4,4.2,8.2,6.3c-3.1-2.6-5.8-5.4-8.3-8.6c2.1,2.7,4.2,5.4,6.3,8.2
			c-2.7-3.7-5-7.7-6.8-11.9c1.4,3.2,2.7,6.4,4.1,9.6c-1.8-4.5-3-9-3.8-13.7c0.5,3.6,1,7.1,1.4,10.7c-0.7-5.3-0.8-10.5-0.1-15.8
			c-0.5,3.6-1,7.1-1.4,10.7c0.7-4.7,1.9-9.2,3.7-13.7c-1.4,3.2-2.7,6.4-4.1,9.6c1.7-3.7,3.6-7.2,6.1-10.5c-2.1,2.7-4.2,5.4-6.3,8.2
			c2.7-3.5,5.8-6.5,9.3-9.3c-2.7,2.1-5.4,4.2-8.2,6.3c3.5-2.6,7.3-4.8,11.4-6.6c-3.2,1.4-6.4,2.7-9.6,4.1c4.1-1.6,8.2-2.7,12.6-3.3
			c-3.6,0.5-7.1,1-10.7,1.4c3.9-0.4,7.7-0.3,11.6,0.2c-3.6-0.5-7.1-1-10.7-1.4c3.9,0.7,7.6,1.7,11.3,3.2c-3.2-1.4-6.4-2.7-9.6-4.1
			c5,2.2,9.6,5,14,8.3c-2.7-2.1-5.4-4.2-8.2-6.3c6.4,5.1,11.9,11,16.9,17.5c-2.1-2.7-4.2-5.4-6.3-8.2c3.1,4.1,6.4,8.3,8.5,13
			c-1.4-3.2-2.7-6.4-4.1-9.6c0.1,0.5,0.3,1,0.4,1.6c-0.5-3.6-1-7.1-1.4-10.7c0.2,1.2,0.2,2.3,0,3.5c0.5-3.6,1-7.1,1.4-10.7
			c-0.2,1.2-0.6,2.3-1,3.4c1.4-3.2,2.7-6.4,4.1-9.6c-2.8,6.4-6,12.8-10.2,18.5c2.1-2.7,4.2-5.4,6.3-8.2c-2,2.5-4.1,4.7-6.6,6.8
			c2.7-2.1,5.4-4.2,8.2-6.3c-2.6,1.9-5.3,3.4-8.2,4.7c3.2-1.4,6.4-2.7,9.6-4.1c-7.2,2.9-14.8,4.3-22.5,5.4c3.6-0.5,7.1-1,10.7-1.4
			C95.6,93.4,89,93.8,82.2,93c3.6,0.5,7.1,1,10.7,1.4c-3.8-0.5-7.5-1.4-11.1-2.8c3.2,1.4,6.4,2.7,9.6,4.1c-3.3-1.4-6.2-3.1-9-5.2
			c2.7,2.1,5.4,4.2,8.2,6.3c-1.9-1.6-3.6-3.3-5.2-5.2c2.1,2.7,4.2,5.4,6.3,8.2c-1.5-2-2.7-4-3.7-6.3c1.4,3.2,2.7,6.4,4.1,9.6
			c-0.8-2.2-1.4-4.4-1.7-6.7c0.5,3.6,1,7.1,1.4,10.7c-0.2-2.3-0.1-4.5,0.1-6.8c-0.5,3.6-1,7.1-1.4,10.7c0.5-2.8,1.2-5.4,2.3-8
			c-1.4,3.2-2.7,6.4-4.1,9.6c1.4-3.1,3-5.9,5.1-8.6c-2.1,2.7-4.2,5.4-6.3,8.2c2.1-2.6,4.5-5,7.1-7.1c-2.7,2.1-5.4,4.2-8.2,6.3
			c2.9-2.2,5.9-3.8,9.2-5.3c-3.2,1.4-6.4,2.7-9.6,4.1c3.6-1.4,7.3-2.4,11.1-3.1c-3.6,0.5-7.1,1-10.7,1.4c4.4-0.6,8.7-0.6,13.2-0.1
			c-3.6-0.5-7.1-1-10.7-1.4c3.8,0.6,7.4,1.5,11,2.8c-3.2-1.4-6.4-2.7-9.6-4.1c2.8,1.2,5.3,2.6,7.8,4.3c-2.7-2.1-5.4-4.2-8.2-6.3
			c2,1.5,3.7,3.1,5.3,5c-2.1-2.7-4.2-5.4-6.3-8.2c1.2,1.6,2.1,3.1,3,4.9c-1.4-3.2-2.7-6.4-4.1-9.6c0.7,1.9,1.2,3.7,1.5,5.6
			c-0.5-3.6-1-7.1-1.4-10.7c0.1,1.6,0.1,3-0.1,4.6c0.5-3.6,1-7.1,1.4-10.7c-0.3,2.1-0.9,4-1.6,5.9c1.4-3.2,2.7-6.4,4.1-9.6
			c-1.3,2.9-2.9,5.5-4.8,8.1c2.1-2.7,4.2-5.4,6.3-8.2c-2.4,2.9-5.1,5.4-8.1,7.7c2.7-2.1,5.4-4.2,8.2-6.3c-3.5,2.6-7.2,4.7-11.2,6.4
			c3.2-1.4,6.4-2.7,9.6-4.1c-4,1.6-8.1,2.7-12.4,3.4c3.6-0.5,7.1-1,10.7-1.4c-3.6,0.4-7.2,0.6-10.8,0.2c3.6,0.5,7.1,1,10.7,1.4
			c-1.9-0.3-3.8-0.7-5.6-1.4c3.2,1.4,6.4,2.7,9.6,4.1c-1.3-0.6-2.5-1.2-3.7-2c2.7,2.1,5.4,4.2,8.2,6.3c-1.2-0.9-2.1-1.8-3-3
			c2.1,2.7,4.2,5.4,6.3,8.2c-0.5-0.7-1-1.5-1.4-2.4c1.4,3.2,2.7,6.4,4.1,9.6c-0.5-1.3-0.8-2.5-1.1-3.9c0.5,3.6,1,7.1,1.4,10.7
			c-0.2-1.9-0.2-3.7,0-5.6c-0.5,3.6-1,7.1-1.4,10.7c0.6-3.5,1.6-6.8,3-10.1c-1.4,3.2-2.7,6.4-4.1,9.6c2-4.3,4.2-8.6,7.1-12.3
			c-2.1,2.7-4.2,5.4-6.3,8.2c1.1-1.2,2.2-2.3,3.5-3.3c-2.7,2.1-5.4,4.2-8.2,6.3c1.3-0.9,2.5-1.6,3.9-2.2c-3.2,1.4-6.4,2.7-9.6,4.1
			c2.4-0.9,4.8-1.5,7.3-1.9c-3.6,0.5-7.1,1-10.7,1.4c6.3-0.6,12.6-0.2,18.9,0.5c-3.6-0.5-7.1-1-10.7-1.4c2.1,0.3,4.1,0.8,6.1,1.5
			c-3.2-1.4-6.4-2.7-9.6-4.1c0.9,0.4,1.8,0.8,2.6,1.4c-2.7-2.1-5.4-4.2-8.2-6.3c1.2,0.9,2.1,1.8,3,3c-2.1-2.7-4.2-5.4-6.3-8.2
			c0.5,0.8,1,1.6,1.3,2.4c-1.4-3.2-2.7-6.4-4.1-9.6c0.1,0.4,0.2,0.9,0.4,1.3c-0.5-3.6-1-7.1-1.4-10.7c0.2,0.9,0.2,1.8,0,2.7
			c0.5-3.6,1-7.1,1.4-10.7c-0.1,0.7-0.3,1.4-0.6,2.1c1.4-3.2,2.7-6.4,4.1-9.6c-0.3,0.6-0.6,1.2-1.1,1.7c2.1-2.7,4.2-5.4,6.3-8.2
			c-0.4,0.5-0.9,1-1.5,1.4c2.7-2.1,5.4-4.2,8.2-6.3c-0.6,0.4-1.2,0.8-1.8,1.1c3.2-1.4,6.4-2.7,9.6-4.1c-1.8,0.7-3.6,1.2-5.5,1.4
			c3.6-0.5,7.1-1,10.7-1.4c-2.9,0.3-5.6,0.2-8.5-0.2c3.6,0.5,7.1,1,10.7,1.4c-1.7-0.3-3.4-0.6-5.1-1.2c3.2,1.4,6.4,2.7,9.6,4.1
			c-0.8-0.3-1.6-0.8-2.2-1.3c2.7,2.1,5.4,4.2,8.2,6.3c-0.3-0.3-0.6-0.7-0.8-1c2.1,2.7,4.2,5.4,6.3,8.2c-0.2-0.4-0.4-0.7-0.5-1.1
			c1.4,3.2,2.7,6.4,4.1,9.6c-0.1-0.4-0.1-0.8-0.2-1.2c0.5,3.6,1,7.1,1.4,10.7c0-0.4,0-0.8,0.1-1.2c-0.5,3.6-1,7.1-1.4,10.7
			c0.1-0.4,0.2-0.8,0.3-1.2c-1.4,3.2-2.7,6.4-4.1,9.6c0.3-0.8,0.7-1.6,1.3-2.2c-2.1,2.7-4.2,5.4-6.3,8.2c0.3-0.3,0.6-0.6,0.9-0.9
			c-2.7,2.1-5.4,4.2-8.2,6.3c0.7-0.6,1.4-1,2.2-1.4c-3.2,1.4-6.4,2.7-9.6,4.1c1-0.4,2.1-0.6,3.2-0.7c-3.6,0.5-7.1,1-10.7,1.4
			c1.7-0.1,3.2,0,4.9,0.3c-3.6-0.5-7.1-1-10.7-1.4c1.1,0.2,2.2,0.4,3.3,0.6c10.7,2.2,21.5,1.6,31.1-4.1c8.4-4.9,16.3-14.5,18.5-24.1
			c2.4-10.3,1.8-21.9-4.1-31.1C138.8,58,130.5,50.1,120.2,47.9L120.2,47.9z"/>
	</g>
</g>
<g id="XMLID_82_">
	<g id="XMLID_86_">
		<path id="XMLID_4_" class="st1" d="M119,19.3c12.1,2.6,23.4,7.6,33.5,14.8c1.8,1.3,4.5,0.3,5.5-1.4c1.2-2,0.3-4.2-1.4-5.5
			c-10.6-7.6-22.7-12.9-35.4-15.6C116.1,10.4,113.9,18.2,119,19.3L119,19.3z"/>
	</g>
</g>
<g id="XMLID_81_">
	<g id="XMLID_77_">
		<path id="XMLID_3_" class="st1" d="M158.3,41.1c0.4,0.4,0.9,0.9,1.3,1.3c1.5,1.5,4.2,1.6,5.7,0c1.5-1.6,1.6-4.1,0-5.7
			c-0.4-0.4-0.9-0.9-1.3-1.3c-1.5-1.5-4.2-1.6-5.7,0C156.8,37,156.7,39.5,158.3,41.1L158.3,41.1z"/>
	</g>
</g>
<path id="XMLID_75_" class="st2" d="M13.6,56.7c0,0-24.2,37-3.4,88c21.5,52.7,104.5,71.5,156.6,20.2
	C158.1,170.7,0.5,201.1,13.6,56.7z"/>
<g id="XMLID_5_">
	<g id="XMLID_68_">
		<path id="XMLID_2_" class="st3" d="M49.9,79.8c0.1,0.5,0.3,1.1,0.6,1.5c0.2,0.5,0.4,1,0.6,1.5c0,0,0,0.1,0.1,0.1
			c0.6,0.8,1.3,1.6,1.9,2.4c0.7,0.8,1.6,1.5,2.6,2c0,0,0.1,0.1,0.1,0.1c1,0.4,1.9,0.8,2.9,1.2c2,0.7,4.7,0.6,6.7,0
			c2-0.5,4.2-1.7,5.6-3.2c0,0,0-0.1,0.1-0.1c0.6-0.8,1.3-1.6,1.9-2.4c0.3-0.5,0.5-1,0.7-1.5c0.3-0.5,0.5-1,0.6-1.5
			c0.1-1.1,0.3-2.1,0.4-3.2c0,0,0-0.1,0-0.1c0-0.6-0.1-1.1-0.2-1.7c0-0.6-0.1-1.1-0.2-1.7c0-0.1,0-0.1-0.1-0.2
			c-0.4-1-0.8-1.9-1.2-2.9c-0.3-0.5-0.6-0.9-1-1.3c-0.3-0.4-0.6-0.9-1-1.3c0,0-0.1-0.1-0.1-0.1c-0.8-0.6-1.6-1.3-2.4-1.9
			c-0.9-0.6-2-1-3.1-1.3c-1.6-0.5-3.2-0.6-4.8-0.2c-1.6,0.1-3.1,0.6-4.5,1.4c-1.4,0.8-2.5,1.8-3.4,3.1c-1.1,1.2-1.8,2.5-2.2,4.1
			c-0.1,1.1-0.3,2.1-0.4,3.2c0,2.2,0.6,4.2,1.7,6.1c0.6,0.8,1.3,1.6,1.9,2.4c1.5,1.5,3.3,2.5,5.3,3.1c0,0,0.1,0,0.1,0
			c-1-0.4-1.9-0.8-2.9-1.2c0,0,0.1,0,0.1,0c-0.8-0.6-1.6-1.3-2.4-1.9c0.1,0,0.1,0.1,0.2,0.1c-0.6-0.8-1.3-1.6-1.9-2.4
			c0,0,0,0.1,0.1,0.1c-0.4-1-0.8-1.9-1.2-2.9c0,0.1,0.1,0.1,0.1,0.2c-0.1-1.1-0.3-2.1-0.4-3.2c0,0.1,0,0.1,0,0.2
			c0.1-1.1,0.3-2.1,0.4-3.2c0,0,0,0.1,0,0.1c0.4-1,0.8-1.9,1.2-2.9c0,0,0,0.1,0,0.1c0.6-0.8,1.3-1.6,1.9-2.4c0,0,0,0.1-0.1,0.1
			c0.8-0.6,1.6-1.3,2.4-1.9c-0.1,0-0.1,0.1-0.2,0.1c1-0.4,1.9-0.8,2.9-1.2c0,0-0.1,0-0.1,0c1.1-0.1,2.1-0.3,3.2-0.4
			c-0.1,0-0.1,0-0.2,0c1.1,0.1,2.1,0.3,3.2,0.4c0,0-0.1,0-0.1,0c1,0.4,1.9,0.8,2.9,1.2c-0.1,0-0.1-0.1-0.2-0.1
			c0.8,0.6,1.6,1.3,2.4,1.9c0,0-0.1,0-0.1-0.1c0.6,0.8,1.3,1.6,1.9,2.4c0-0.1-0.1-0.1-0.1-0.2c0.4,1,0.8,1.9,1.2,2.9
			c0,0,0-0.1,0-0.1c-0.4-1.6-1.1-2.9-2.2-4.1c-0.9-1.3-2-2.4-3.4-3.1c-1.4-0.9-2.9-1.4-4.5-1.4c-1.6-0.4-3.2-0.3-4.8,0.2
			c-1,0.4-1.9,0.8-2.9,1.2c-1.8,1.1-3.3,2.5-4.3,4.3c-0.4,1-0.8,1.9-1.2,2.9C49.4,75.5,49.4,77.7,49.9,79.8L49.9,79.8z"/>
	</g>
</g>
<g id="XMLID_8_">
	<g id="XMLID_113_">
		<path class="st3" d="M122.5,79.8c0.1,0.5,0.3,1.1,0.6,1.5c0.2,0.5,0.4,1,0.6,1.5c0,0,0,0.1,0.1,0.1c0.6,0.8,1.3,1.6,1.9,2.4
			c0.7,0.8,1.6,1.5,2.6,2c0,0,0.1,0.1,0.1,0.1c1,0.4,1.9,0.8,2.9,1.2c2,0.7,4.7,0.6,6.7,0c2-0.5,4.2-1.7,5.6-3.2c0,0,0-0.1,0.1-0.1
			c0.6-0.8,1.3-1.6,1.9-2.4c0.3-0.5,0.5-1,0.7-1.5c0.3-0.5,0.5-1,0.6-1.5c0.1-1.1,0.3-2.1,0.4-3.2c0,0,0-0.1,0-0.1
			c0-0.6-0.1-1.1-0.2-1.7c0-0.6-0.1-1.1-0.2-1.7c0-0.1,0-0.1-0.1-0.2c-0.4-1-0.8-1.9-1.2-2.9c-0.3-0.5-0.6-0.9-1-1.3
			c-0.3-0.4-0.6-0.9-1-1.3c0,0-0.1-0.1-0.1-0.1c-0.8-0.6-1.6-1.3-2.4-1.9c-0.9-0.6-2-1-3.1-1.3c-1.6-0.5-3.2-0.6-4.8-0.2
			c-1.6,0.1-3.1,0.6-4.5,1.4c-1.4,0.8-2.5,1.8-3.4,3.1c-1.1,1.2-1.8,2.5-2.2,4.1c-0.1,1.1-0.3,2.1-0.4,3.2c0,2.2,0.6,4.2,1.7,6.1
			c0.6,0.8,1.3,1.6,1.9,2.4c1.5,1.5,3.3,2.5,5.3,3.1c0,0,0.1,0,0.1,0c-1-0.4-1.9-0.8-2.9-1.2c0,0,0.1,0,0.1,0
			c-0.8-0.6-1.6-1.3-2.4-1.9c0.1,0,0.1,0.1,0.2,0.1c-0.6-0.8-1.3-1.6-1.9-2.4c0,0,0,0.1,0.1,0.1c-0.4-1-0.8-1.9-1.2-2.9
			c0,0.1,0.1,0.1,0.1,0.2c-0.1-1.1-0.3-2.1-0.4-3.2c0,0.1,0,0.1,0,0.2c0.1-1.1,0.3-2.1,0.4-3.2c0,0,0,0.1,0,0.1
			c0.4-1,0.8-1.9,1.2-2.9c0,0,0,0.1,0,0.1c0.6-0.8,1.3-1.6,1.9-2.4c0,0,0,0.1-0.1,0.1c0.8-0.6,1.6-1.3,2.4-1.9
			c-0.1,0-0.1,0.1-0.2,0.1c1-0.4,1.9-0.8,2.9-1.2c0,0-0.1,0-0.1,0c1.1-0.1,2.1-0.3,3.2-0.4c-0.1,0-0.1,0-0.2,0
			c1.1,0.1,2.1,0.3,3.2,0.4c0,0-0.1,0-0.1,0c1,0.4,1.9,0.8,2.9,1.2c-0.1,0-0.1-0.1-0.2-0.1c0.8,0.6,1.6,1.3,2.4,1.9
			c0,0-0.1,0-0.1-0.1c0.6,0.8,1.3,1.6,1.9,2.4c0-0.1-0.1-0.1-0.1-0.2c0.4,1,0.8,1.9,1.2,2.9c0,0,0-0.1,0-0.1
			c-0.4-1.6-1.1-2.9-2.2-4.1c-0.9-1.3-2-2.4-3.4-3.1c-1.4-0.9-2.9-1.4-4.5-1.4c-1.6-0.4-3.2-0.3-4.8,0.2c-1,0.4-1.9,0.8-2.9,1.2
			c-1.8,1.1-3.3,2.5-4.3,4.3c-0.4,1-0.8,1.9-1.2,2.9C121.9,75.5,121.9,77.7,122.5,79.8L122.5,79.8z"/>
	</g>
</g>
<g id="XMLID_11_">
	<g id="XMLID_65_">
		<path id="XMLID_23_" class="st3" d="M123.4,131.6c0,0,0-0.1,0-0.1c0.4-1,0.3-1.9-0.4-2.7c-5-6.2-15.6-7.8-23-7.3
			c-8.5,0.5-16.7,3.8-23.1,9.4c-3.8,3.3,1.9,9,5.5,5.5c5-4.7,11.5-7.4,18.3-8c3.5-0.3,6.9,0,10.3,0.8c3.4,0.8,6.5,2.4,9.8,3.4
			c0.8,0.2,1.6,0,2.2-0.6C123.2,131.8,123.3,131.7,123.4,131.6L123.4,131.6z"/>
	</g>
</g>
<g id="Layer_2" class="st4">
	<path id="XMLID_24_" class="st5" d="M56,118c0.8,3.3,79,6.5,83.3,1.5c1.2-1.4-0.4,13.3-10,25.7c-0.6,0.8-1.2,1.5-1.9,2.3
		c-6.4,7.3-15.9,13.4-29.5,14.2c-0.5,0-1.1,0.1-1.6,0.1c-17.4,0.4-27.6-10.2-33.3-21.2c-0.2-0.4-0.4-0.8-0.6-1.2
		C56.7,128,55.7,116.8,56,118z"/>
</g>
<g id="Layer_3" class="st4">
	<path id="XMLID_37_" class="st6" d="M67.8,147.6c-0.3,0.8,25.4,32.3,58.1,1.3C125.9,148.9,100.9,142.1,67.8,147.6z"/>
</g>
<g id="Layer_4" class="st4">
	<g id="XMLID_26_" class="st7">
		<g id="XMLID_107_">
			<path class="st0" d="M58.4,116.5c-2.1,0-4.2,1.9-5.2,3.6c-0.4,0.7,0.7,1.3,1,0.6c0.5-1,1.2-1.7,2.1-2.3c0.8-0.5,1.6-0.9,2.2-1.6
				C58.6,116.7,58.5,116.5,58.4,116.5L58.4,116.5z"/>
		</g>
	</g>
	<g id="XMLID_30_" class="st7">
		<g id="XMLID_114_">
			<path class="st0" d="M137.7,118.9c0.8,0.4,1.6,0.6,2.4,0.7c0.7,0.1,0.9-0.9,0.1-1c-0.9-0.1-1.7-0.2-2.5,0.1
				C137.6,118.7,137.6,118.8,137.7,118.9L137.7,118.9z"/>
		</g>
	</g>
</g>
<g id="Layer_5" class="st4">
	<g id="XMLID_1_" class="st7">
		<g id="XMLID_106_">
			<path class="st3" d="M74.2,129.3c1.6,2.3,3.9,2.9,6.7,3.2c4.8,0.6,9.9,0.4,14.8,0.5c4.6,0.1,9.2,0.2,13.8,0.4
				c4,0.1,7.5,1,10.6-1.8c1-0.9,0.9-2.6,0-3.4c-2.8-2.8-5.9-2.2-9.6-2.2c-4.9-0.1-9.9-0.2-14.8-0.3c-4.6-0.1-9.2-0.3-13.8-0.1
				c-3.1,0.1-5.8,0.4-7.7,2.9C74,128.6,74.1,129.1,74.2,129.3L74.2,129.3z"/>
		</g>
	</g>
</g>
<g id="XMLID_18_" class="st4">
	<g id="XMLID_52_" class="st7">
		<path class="st3" d="M66.3,73c1.3,0,2.5-1.1,2.5-2.5c-0.1-1.3-1.1-2.5-2.5-2.5c-1.3,0-2.5,1.1-2.5,2.5C63.9,71.9,64.9,73,66.3,73
			L66.3,73z"/>
	</g>
</g>
<g id="XMLID_20_" class="st4">
	<g id="XMLID_45_" class="st7">
		<path class="st3" d="M64.9,75.4c1.8,0,3.5-1.6,3.5-3.5c-0.1-1.9-1.5-3.5-3.5-3.5c-1.8,0-3.5,1.6-3.5,3.5
			C61.6,73.8,63,75.4,64.9,75.4L64.9,75.4z"/>
	</g>
</g>
<g id="XMLID_25_" class="st4">
	<g id="XMLID_39_" class="st7">
		<path class="st3" d="M64.3,76.6c5.2,0,5.2-8.1,0-8.1C59.1,68.6,59.1,76.6,64.3,76.6L64.3,76.6z"/>
	</g>
</g>
<g id="XMLID_27_" class="st4">
	<g id="XMLID_31_" class="st7">
		<path class="st3" d="M69.7,73.7c0-0.1,0-0.1,0-0.2c-0.1,0.3-0.3,0.6-0.4,1c0,0,0,0,0-0.1c-0.2,0.3-0.4,0.5-0.6,0.8
			c0,0,0,0,0.1-0.1c-0.3,0.2-0.5,0.4-0.8,0.6c0,0,0,0,0.1,0c-0.3,0.1-0.6,0.3-1,0.4c0.1,0,0.1,0,0.2-0.1c-0.4,0-0.7,0.1-1.1,0.1
			c0.1,0,0.2,0,0.3,0c-0.4,0-0.7-0.1-1.1-0.1c0.1,0,0.1,0,0.2,0.1c-0.3-0.1-0.6-0.3-1-0.4c0,0,0,0,0.1,0c-0.3-0.2-0.5-0.4-0.8-0.6
			c0,0,0,0,0.1,0.1c-0.2-0.3-0.4-0.5-0.6-0.8c0,0,0,0,0,0.1c-0.1-0.3-0.3-0.6-0.4-1c0,0.1,0,0.1,0,0.2c0.2,0.9,1.1,2,1.9,2.4
			c0.9,0.5,2.1,0.7,3.1,0.4c1-0.3,1.9-0.9,2.4-1.9c0.5-1,0.6-2,0.4-3.1c-0.2-1-1.1-2.2-2-2.7c-0.7-0.4-1.5-0.7-2.4-0.7
			c-0.8,0-1.7,0.2-2.4,0.7c-0.9,0.5-1.8,1.6-2,2.7c-0.2,1.1-0.2,2.1,0.4,3.1c0.5,0.8,1.4,1.6,2.4,1.9c1,0.2,2.2,0.2,3.1-0.4
			C68.7,75.5,69.5,74.7,69.7,73.7L69.7,73.7z"/>
	</g>
</g>
<g id="XMLID_32_">
	<g id="XMLID_28_">
		<path class="st8" d="M60.9,73.9c0,0.2,0,0.4,0,0.7c0,2.1,1.9,4.1,4,4c2.2-0.1,4-1.8,4-4c0-0.2,0-0.4,0-0.7c0-2.1-1.9-4.1-4-4
			C62.8,70,60.9,71.7,60.9,73.9L60.9,73.9z"/>
	</g>
</g>
<g id="XMLID_34_">
	<g id="XMLID_67_">
		<path class="st8" d="M142.2,73.9c0-0.2,0-0.4,0-0.7c0-2.1-1.9-4.1-4-4c-2.2,0.1-4,1.8-4,4c0,0.2,0,0.4,0,0.7c0,2.1,1.9,4.1,4,4
			C140.4,77.9,142.2,76.2,142.2,73.9L142.2,73.9z"/>
	</g>
</g>
<g id="XMLID_7_">
	<g id="XMLID_124_">
		<path id="XMLID_16_" class="st3" d="M111.7,72.2c5.6,1.2,11.7-1.9,16.9-3.7c5.9-2,11.9-4.2,17.8-6.3c4.7-1.7,2.7-9.4-2.1-7.6
			c-5.9,2.2-11.8,4.4-17.7,6.7c-2.8,1.1-5.7,2.2-8.4,3.4c-2.8,1.2-5.3,2.2-7.2,4.7C110.2,70.4,110.3,71.9,111.7,72.2L111.7,72.2z"/>
	</g>
</g>
<g id="XMLID_38_">
	<g id="XMLID_131_">
		<path id="XMLID_135_" class="st3" d="M85.3,69.5c-1.9-2.5-4.4-3.4-7.2-4.7c-2.8-1.2-5.6-2.3-8.4-3.4c-5.9-2.3-11.8-4.5-17.7-6.7
			c-4.7-1.8-6.8,5.9-2.1,7.6c5.9,2.1,11.8,4.3,17.8,6.3c5.2,1.8,11.3,4.9,16.9,3.7C85.9,71.9,86,70.4,85.3,69.5L85.3,69.5z"/>
	</g>
</g>
</svg>
