<?xml version="1.0" encoding="utf-8"?>
<!-- Generator: Adobe Illustrator 19.0.0, SVG Export Plug-In . SVG Version: 6.00 Build 0)  -->
<svg version="1.1" xmlns="http://www.w3.org/2000/svg" xmlns:xlink="http://www.w3.org/1999/xlink" x="0px" y="0px"
	 viewBox="4 -4 368 368" style="enable-background:new 4 -4 368 368;" xml:space="preserve">
<style type="text/css">
	.st0{fill:#E1F1DC;}
	.st1{fill:#91CD82;}
</style>
<g id="Layer_2">
	<circle class="st0" cx="188.5" cy="181" r="169"/>
</g>
<g id="Capa_1">
	<path class="st1" d="M265.3,222c-3.3-3-8.4-2.7-11.3,0.6c-16.7,18.6-40.8,29.3-66,29.3c-25.3,0-49.4-10.7-66-29.3
		c-3-3.3-8-3.6-11.3-0.6c-3.3,2.9-3.6,8-0.6,11.3c19.7,22,48.1,34.7,78,34.7c29.8,0,58.2-12.6,78-34.7
		C268.9,230,268.6,225,265.3,222z"/>
	<path class="st1" d="M188-4C86.5-4,4,78.5,4,180s82.5,184,184,184s184-82.5,184-184S289.5-4,188-4z M188,348
		c-92.6,0-168-75.4-168-168S95.4,12,188,12s168,75.4,168,168S280.6,348,188,348z"/>
	<path class="st1" d="M252,124c-22.1,0-40,17.9-40,40c0,4.4,3.6,8,8,8s8-3.6,8-8c0-13.2,10.8-24,24-24s24,10.8,24,24
		c0,4.4,3.6,8,8,8s8-3.6,8-8C292,141.9,274.1,124,252,124z"/>
	<path class="st1" d="M148,164c0,4.4,3.6,8,8,8s8-3.6,8-8c0-22.1-17.9-40-40-40s-40,17.9-40,40c0,4.4,3.6,8,8,8s8-3.6,8-8
		c0-13.2,10.8-24,24-24S148,150.8,148,164z"/>
</g>
</svg>
