<?xml version="1.0" encoding="utf-8"?>
<!-- Generator: Adobe Illustrator 19.0.0, SVG Export Plug-In . SVG Version: 6.00 Build 0)  -->
<svg version="1.1" xmlns="http://www.w3.org/2000/svg" xmlns:xlink="http://www.w3.org/1999/xlink" x="0px" y="0px"
	 viewBox="4 -4 368 368" style="enable-background:new 4 -4 368 368;" xml:space="preserve">
<style type="text/css">
	.st0{fill:#FDEDD0;}
	.st1{fill:#FBBF54;}
</style>
<g id="Layer_2">
	<circle class="st0" cx="188" cy="176.8" r="171.3"/>
</g>
<g id="Capa_1">
	<g>
		<path class="st1" d="M188-4C86.5-4,4,78.5,4,180s82.5,184,184,184s184-82.5,184-184S289.5-4,188-4z M188,348
			c-92.6,0-168-75.4-168-168S95.4,12,188,12s168,75.4,168,168S280.6,348,188,348z"/>
		<path class="st1" d="M124,172c13.2,0,24-10.8,24-24s-10.8-24-24-24s-24,10.8-24,24S110.8,172,124,172z M124,140c4.4,0,8,3.6,8,8
			s-3.6,8-8,8c-4.4,0-8-3.6-8-8S119.6,140,124,140z"/>
		<path class="st1" d="M252,124c-13.2,0-24,10.8-24,24s10.8,24,24,24s24-10.8,24-24S265.2,124,252,124z M252,156c-4.4,0-8-3.6-8-8
			s3.6-8,8-8c4.4,0,8,3.6,8,8S256.4,156,252,156z"/>
		<path class="st1" d="M268,220H108c-4.4,0-8,3.6-8,8s3.6,8,8,8h160c4.4,0,8-3.6,8-8S272.4,220,268,220z"/>
	</g>
</g>
</svg>
