<?xml version="1.0" encoding="utf-8"?>
<!-- Generator: Adobe Illustrator 19.0.0, SVG Export Plug-In . SVG Version: 6.00 Build 0)  -->
<svg version="1.1" xmlns="http://www.w3.org/2000/svg" xmlns:xlink="http://www.w3.org/1999/xlink" x="0px" y="0px"
	 viewBox="4 -4 368 368" style="enable-background:new 4 -4 368 368;" xml:space="preserve">
<style type="text/css">
	.st0{fill:#DDECEF;}
	.st1{fill:#459BA8;}
</style>
<g id="Layer_2">
	<circle class="st0" cx="186" cy="178" r="171"/>
</g>
<g id="Capa_1">
	<path class="st1" d="M188,220c-29.8,0-58.2,12.6-78,34.7c-2.9,3.3-2.7,8.3,0.6,11.3c1.5,1.4,3.4,2,5.3,2c2.2,0,4.4-0.9,6-2.7
		c16.7-18.6,40.8-29.3,66-29.3c25.3,0,49.4,10.7,66,29.3c2.9,3.3,8,3.6,11.3,0.6s3.6-8,0.6-11.3C246.2,232.6,217.8,220,188,220z"/>
	<path class="st1" d="M188-4C86.5-4,4,78.5,4,180s82.5,184,184,184s184-82.5,184-184S289.5-4,188-4z M188,348
		c-92.6,0-168-75.4-168-168S95.4,12,188,12s168,75.4,168,168S280.6,348,188,348z"/>
	<path class="st1" d="M284,124c-4.4,0-8,3.6-8,8c0,13.2-10.8,24-24,24s-24-10.8-24-24c0-4.4-3.6-8-8-8s-8,3.6-8,8
		c0,22.1,17.9,40,40,40s40-17.9,40-40C292,127.6,288.4,124,284,124z"/>
	<path class="st1" d="M164,132c0-4.4-3.6-8-8-8s-8,3.6-8,8c0,13.2-10.8,24-24,24s-24-10.8-24-24c0-4.4-3.6-8-8-8s-8,3.6-8,8
		c0,22.1,17.9,40,40,40S164,154.1,164,132z"/>
</g>
</svg>
