<?xml version="1.0" encoding="utf-8"?>
<!-- Generator: Adobe Illustrator 19.0.0, SVG Export Plug-In . SVG Version: 6.00 Build 0)  -->
<svg version="1.1" xmlns="http://www.w3.org/2000/svg" xmlns:xlink="http://www.w3.org/1999/xlink" x="0px" y="0px"
	 viewBox="4 -4 368 368" style="enable-background:new 4 -4 368 368;" xml:space="preserve">
<style type="text/css">
	.st0{fill:#FFAEAE;}
	.st1{fill:#282828;}
</style>
<g id="Layer_2">
	<g id="Layer_2_1_">
		<ellipse class="st0" cx="179" cy="188" rx="169" ry="169"/>
	</g>
</g>
<g id="Capa_1">
	<g>
		<g>
			<g>
				<path class="st1" d="M196-4.3C98.8-4.3,19.8,74.8,19.8,172s79,176.3,176.3,176.3s176.3-79,176.3-176.3S293.2-4.3,196-4.3z
					 M196,332.9c-88.7,0-160.9-72.2-160.9-160.9S107.3,11.1,196,11.1S356.9,83.3,356.9,172S284.7,332.9,196,332.9z"/>
				<path class="st1" d="M157.7,156.7c0-12.6-10.3-23-23-23c-12.6,0-23,10.3-23,23c0,12.6,10.3,23,23,23
					C147.3,179.7,157.7,169.3,157.7,156.7z M127,156.7c0-4.2,3.4-7.7,7.7-7.7s7.7,3.4,7.7,7.7c0,4.2-3.4,7.7-7.7,7.7
					S127,160.9,127,156.7z"/>
				<path class="st1" d="M257.3,133.7c-12.6,0-23,10.3-23,23c0,12.6,10.3,23,23,23c12.6,0,23-10.3,23-23
					C280.3,144,269.9,133.7,257.3,133.7z M257.3,164.3c-4.2,0-7.7-3.4-7.7-7.7c0-4.2,3.4-7.7,7.7-7.7c4.2,0,7.7,3.4,7.7,7.7
					C265,160.9,261.5,164.3,257.3,164.3z"/>
				<path class="st1" d="M226.7,103c1.1,0,2.3-0.3,3.4-0.8l30.7-15.3c3.8-1.9,5.4-6.5,3.4-10.2c-1.9-3.8-6.5-5.4-10.2-3.4
					l-30.7,15.3c-3.8,1.9-5.4,6.5-3.4,10.2C221.1,101.5,223.9,103,226.7,103z"/>
				<path class="st1" d="M131.2,86.9l30.7,15.3c1.1,0.6,2.3,0.8,3.4,0.8c2.8,0,5.6-1.5,6.9-4.2c1.9-3.8,0.4-8.4-3.4-10.2l-30.7-15.3
					c-3.8-1.9-8.4-0.4-10.2,3.4C126,80.4,127.5,85,131.2,86.9z"/>
				<path class="st1" d="M196,210.3c-28.5,0-55.7,12.1-74.7,33.2c-2.8,3.2-2.6,8,0.6,10.8c3.2,2.9,8,2.6,10.8-0.6
					c16-17.8,39.1-28.1,63.2-28.1c24.2,0,47.2,10.2,63.2,28.1c1.5,1.7,3.6,2.6,5.7,2.6c1.8,0,3.6-0.7,5.1-1.9
					c3.2-2.9,3.4-7.7,0.6-10.8C251.7,222.4,224.5,210.3,196,210.3z"/>
			</g>
		</g>
	</g>
</g>
</svg>
