<?xml version="1.0" encoding="utf-8"?>
<!-- Generator: Adobe Illustrator 19.0.0, SVG Export Plug-In . SVG Version: 6.00 Build 0)  -->
<svg version="1.1" xmlns="http://www.w3.org/2000/svg" xmlns:xlink="http://www.w3.org/1999/xlink" x="0px" y="0px"
	 viewBox="4 -4 368 368" style="enable-background:new 4 -4 368 368;" xml:space="preserve">
<style type="text/css">
	.st0{fill:#FCE39D;}
	.st1{fill:#282828;}
</style>
<g id="Layer_2">
	<g id="Layer_2_1_">
		<ellipse class="st0" cx="179" cy="188" rx="169" ry="169"/>
	</g>
</g>
<g id="Capa_1">
	<g>
		<g>
			<g>
				<path class="st1" d="M196-4C98.8-4,19.8,75,19.8,172.3s79,176.3,176.3,176.3s176.3-79,176.3-176.3S293.3-4,196-4z M196,333.2
					c-88.7,0-160.9-72.2-160.9-160.9S107.3,11.3,196,11.3S357,83.6,357,172.3S284.7,333.2,196,333.2z"/>
				<path class="st1" d="M157.7,141.6c0-12.6-10.3-23-23-23c-12.6,0-23,10.3-23,23c0,12.6,10.3,23,23,23
					C147.4,164.6,157.7,154.2,157.7,141.6z M127.1,141.6c0-4.2,3.4-7.7,7.7-7.7c4.2,0,7.7,3.4,7.7,7.7c0,4.2-3.4,7.7-7.7,7.7
					C130.5,149.3,127.1,145.8,127.1,141.6z"/>
				<path class="st1" d="M257.3,118.6c-12.6,0-23,10.3-23,23c0,12.6,10.3,23,23,23c12.6,0,23-10.3,23-23
					C280.3,129,270,118.6,257.3,118.6z M257.3,149.3c-4.2,0-7.7-3.4-7.7-7.7c0-4.2,3.4-7.7,7.7-7.7s7.7,3.4,7.7,7.7
					C265,145.8,261.5,149.3,257.3,149.3z"/>
				<path class="st1" d="M270.1,212.5c-3.2-2.9-8-2.6-10.8,0.6c-16,17.8-39.1,28.1-63.2,28.1c-24.2,0-47.3-10.2-63.2-28.1
					c-2.9-3.2-7.7-3.4-10.8-0.6c-3.2,2.8-3.4,7.7-0.6,10.8c18.9,21.1,46.1,33.2,74.7,33.2c28.5,0,55.7-12.1,74.7-33.2
					C273.5,220.1,273.2,215.4,270.1,212.5z"/>
			</g>
		</g>
	</g>
</g>
</svg>
