<?xml version="1.0" encoding="utf-8"?>
<!-- Generator: Adobe Illustrator 19.0.0, SVG Export Plug-In . SVG Version: 6.00 Build 0)  -->
<svg version="1.1" xmlns="http://www.w3.org/2000/svg" xmlns:xlink="http://www.w3.org/1999/xlink" x="0px" y="0px"
	 viewBox="4 -4 368 368" style="enable-background:new 4 -4 368 368;" xml:space="preserve">
<style type="text/css">
	.st0{fill:#FFC7A1;}
	.st1{fill:#282828;}
</style>
<g id="Layer_2">
	<g id="Layer_2_1_">
		<circle class="st0" cx="179" cy="188" r="169"/>
	</g>
</g>
<g id="Capa_1">
	<g>
		<g>
			<g>
				<path class="st1" d="M196-4.3C98.8-4.3,19.8,74.8,19.8,172S98.8,348.3,196,348.3S372.3,269.2,372.3,172S293.2-4.3,196-4.3z
					 M196,332.9c-88.7,0-160.9-72.2-160.9-160.9S107.3,11.1,196,11.1S356.9,83.3,356.9,172S284.7,332.9,196,332.9z"/>
				<path class="st1" d="M134.7,164.3c12.7,0,23-10.3,23-23s-10.3-23-23-23s-23,10.3-23,23S122,164.3,134.7,164.3z M134.7,133.7
					c4.2,0,7.7,3.4,7.7,7.7c0,4.2-3.4,7.7-7.7,7.7s-7.7-3.4-7.7-7.7C127,137.1,130.5,133.7,134.7,133.7z"/>
				<path class="st1" d="M257.3,118.4c-12.7,0-23,10.3-23,23s10.3,23,23,23c12.7,0,23-10.3,23-23S270,118.4,257.3,118.4z M257.3,149
					c-4.2,0-7.7-3.4-7.7-7.7c0-4.2,3.4-7.7,7.7-7.7s7.7,3.4,7.7,7.7C265,145.6,261.5,149,257.3,149z"/>
				<path class="st1" d="M272.6,210.3H119.4c-4.2,0-7.7,3.4-7.7,7.7c0,4.2,3.4,7.7,7.7,7.7h153.3c4.2,0,7.7-3.4,7.7-7.7
					C280.3,213.7,276.9,210.3,272.6,210.3z"/>
			</g>
		</g>
	</g>
</g>
</svg>
